<mxfile modified="2024-03-23T15:48:37.176Z" host="app.diagrams.net" agent="Mozilla/5.0 (Windows NT 10.0; Win64; x64; rv:124.0) Gecko/20100101 Firefox/124.0" etag="FSn193RZkjyY8HHuoYrF" version="24.0.9" type="github">
  <diagram id="C2fSY1v2SiZeoUbDoYyL" name="Page-1">
    <mxGraphModel dx="1499" dy="869" grid="1" gridSize="10" guides="1" tooltips="1" connect="1" arrows="1" fold="1" page="1" pageScale="1" pageWidth="1169" pageHeight="827" math="0" shadow="0">
      <root>
        <mxCell id="0" />
        <mxCell id="1" parent="0" />
        <mxCell id="amalOigmN-ex_Px7Ythu-1" value="&lt;h1 style=&quot;font-size: 20px;&quot;&gt;Multi-Cell High-Fidelity High-Power Circuits&lt;/h1&gt;" style="rounded=1;whiteSpace=wrap;html=1;" parent="1" vertex="1">
          <mxGeometry x="305.5" y="19" width="451" height="65" as="geometry" />
        </mxCell>
        <mxCell id="amalOigmN-ex_Px7Ythu-3" value="" style="shape=flexArrow;endArrow=classic;html=1;rounded=0;exitX=0.038;exitY=1.007;exitDx=0;exitDy=0;entryX=0.5;entryY=0;entryDx=0;entryDy=0;exitPerimeter=0;textOpacity=30;" parent="1" source="amalOigmN-ex_Px7Ythu-25" target="amalOigmN-ex_Px7Ythu-19" edge="1">
          <mxGeometry width="50" height="50" relative="1" as="geometry">
            <mxPoint x="530.73" y="259.9050000000001" as="sourcePoint" />
            <mxPoint x="531.27" y="306" as="targetPoint" />
          </mxGeometry>
        </mxCell>
        <mxCell id="amalOigmN-ex_Px7Ythu-33" value="" style="shape=flexArrow;endArrow=classic;html=1;rounded=0;exitX=0.5;exitY=1;exitDx=0;exitDy=0;entryX=0.5;entryY=0;entryDx=0;entryDy=0;textOpacity=30;" parent="1" source="amalOigmN-ex_Px7Ythu-19" target="amalOigmN-ex_Px7Ythu-27" edge="1">
          <mxGeometry width="50" height="50" relative="1" as="geometry">
            <mxPoint x="517" y="478" as="sourcePoint" />
            <mxPoint x="517" y="521" as="targetPoint" />
          </mxGeometry>
        </mxCell>
        <mxCell id="amalOigmN-ex_Px7Ythu-35" value="" style="shape=flexArrow;endArrow=classic;html=1;rounded=0;exitX=0.5;exitY=1;exitDx=0;exitDy=0;entryX=0.5;entryY=0;entryDx=0;entryDy=0;textOpacity=30;" parent="1" source="amalOigmN-ex_Px7Ythu-1" target="amalOigmN-ex_Px7Ythu-2" edge="1">
          <mxGeometry width="50" height="50" relative="1" as="geometry">
            <mxPoint x="527" y="67.52000000000001" as="sourcePoint" />
            <mxPoint x="527" y="110.52000000000001" as="targetPoint" />
          </mxGeometry>
        </mxCell>
        <mxCell id="amalOigmN-ex_Px7Ythu-67" value="" style="group" parent="1" vertex="1" connectable="0">
          <mxGeometry x="841" y="9" width="139" height="26" as="geometry" />
        </mxCell>
        <mxCell id="amalOigmN-ex_Px7Ythu-59" value="" style="rounded=0;whiteSpace=wrap;html=1;" parent="amalOigmN-ex_Px7Ythu-67" vertex="1">
          <mxGeometry y="2.5" width="69" height="21" as="geometry" />
        </mxCell>
        <mxCell id="amalOigmN-ex_Px7Ythu-60" value="Existing" style="text;html=1;align=center;verticalAlign=middle;resizable=0;points=[];autosize=1;strokeColor=none;fillColor=none;" parent="amalOigmN-ex_Px7Ythu-67" vertex="1">
          <mxGeometry x="78" width="61" height="26" as="geometry" />
        </mxCell>
        <mxCell id="amalOigmN-ex_Px7Ythu-68" value="" style="group" parent="1" vertex="1" connectable="0">
          <mxGeometry x="841" y="38" width="192" height="26" as="geometry" />
        </mxCell>
        <mxCell id="amalOigmN-ex_Px7Ythu-61" value="" style="rounded=0;whiteSpace=wrap;html=1;fillColor=#d5e8d4;strokeColor=#82b366;" parent="amalOigmN-ex_Px7Ythu-68" vertex="1">
          <mxGeometry width="69" height="21" as="geometry" />
        </mxCell>
        <mxCell id="amalOigmN-ex_Px7Ythu-62" value="Contribution made" style="text;html=1;align=center;verticalAlign=middle;resizable=0;points=[];autosize=1;strokeColor=none;fillColor=none;" parent="amalOigmN-ex_Px7Ythu-68" vertex="1">
          <mxGeometry x="78" width="114" height="26" as="geometry" />
        </mxCell>
        <mxCell id="amalOigmN-ex_Px7Ythu-69" value="" style="group" parent="1" vertex="1" connectable="0">
          <mxGeometry x="841" y="63" width="206" height="26" as="geometry" />
        </mxCell>
        <mxCell id="amalOigmN-ex_Px7Ythu-63" value="" style="rounded=0;whiteSpace=wrap;html=1;fillColor=#fff2cc;strokeColor=#d6b656;" parent="amalOigmN-ex_Px7Ythu-69" vertex="1">
          <mxGeometry y="2.5" width="69" height="21" as="geometry" />
        </mxCell>
        <mxCell id="amalOigmN-ex_Px7Ythu-64" value="Contribution to make" style="text;html=1;align=center;verticalAlign=middle;resizable=0;points=[];autosize=1;strokeColor=none;fillColor=none;" parent="amalOigmN-ex_Px7Ythu-69" vertex="1">
          <mxGeometry x="78" width="128" height="26" as="geometry" />
        </mxCell>
        <mxCell id="amalOigmN-ex_Px7Ythu-45" value="&lt;div&gt;&amp;nbsp;&amp;nbsp;&amp;nbsp; Applications&lt;br&gt;&lt;/div&gt;" style="rounded=1;whiteSpace=wrap;html=1;align=left;verticalAlign=top;arcSize=8;textOpacity=30;" parent="1" vertex="1">
          <mxGeometry x="852" y="117" width="318" height="543" as="geometry" />
        </mxCell>
        <mxCell id="amalOigmN-ex_Px7Ythu-46" value="Grid appliances" style="ellipse;whiteSpace=wrap;html=1;textOpacity=30;opacity=30;" parent="1" vertex="1">
          <mxGeometry x="1033" y="583" width="120" height="52" as="geometry" />
        </mxCell>
        <mxCell id="amalOigmN-ex_Px7Ythu-47" value="EV drivetrain" style="ellipse;whiteSpace=wrap;html=1;fillColor=#fff2cc;strokeColor=#d6b656;textOpacity=30;" parent="1" vertex="1">
          <mxGeometry x="868.5" y="380" width="141.5" height="52" as="geometry" />
        </mxCell>
        <mxCell id="amalOigmN-ex_Px7Ythu-48" value="x10 MVA biodemical stimulator: asymmetrical implementation" style="ellipse;whiteSpace=wrap;html=1;fillColor=#fff2cc;strokeColor=#d6b656;textOpacity=30;" parent="1" vertex="1">
          <mxGeometry x="870.5" y="466" width="224.5" height="90" as="geometry" />
        </mxCell>
        <mxCell id="amalOigmN-ex_Px7Ythu-49" value="25 GVAHz biodemical stimulator" style="ellipse;whiteSpace=wrap;html=1;fillColor=#d5e8d4;strokeColor=#82b366;textOpacity=30;" parent="1" vertex="1">
          <mxGeometry x="868.5" y="160" width="137" height="63" as="geometry" />
        </mxCell>
        <mxCell id="amalOigmN-ex_Px7Ythu-50" value="The very first demo circuit of PPCMC" style="ellipse;whiteSpace=wrap;html=1;fillColor=#fff2cc;strokeColor=#d6b656;" parent="1" vertex="1">
          <mxGeometry x="870.5" y="261" width="137" height="63" as="geometry" />
        </mxCell>
        <mxCell id="amalOigmN-ex_Px7Ythu-2" value="&lt;font size=&quot;1&quot;&gt;&lt;b style=&quot;font-size: 22px;&quot;&gt;Topology&lt;/b&gt;&lt;/font&gt;" style="rounded=0;whiteSpace=wrap;html=1;align=left;verticalAlign=top;container=0;" parent="1" vertex="1">
          <mxGeometry x="281" y="115" width="500" height="146" as="geometry" />
        </mxCell>
        <mxCell id="amalOigmN-ex_Px7Ythu-25" value="Paralleling current surge &amp;amp; differential-mode inductance" style="rounded=0;whiteSpace=wrap;html=1;fillColor=#d5e8d4;strokeColor=#82b366;container=0;" parent="1" vertex="1">
          <mxGeometry x="521" y="225" width="260" height="35" as="geometry" />
        </mxCell>
        <mxCell id="amalOigmN-ex_Px7Ythu-4" value="Half-Bridge" style="rounded=0;whiteSpace=wrap;html=1;container=0;textOpacity=30;" parent="1" vertex="1">
          <mxGeometry x="281" y="151.67" width="120" height="109.33" as="geometry" />
        </mxCell>
        <mxCell id="amalOigmN-ex_Px7Ythu-5" value="&lt;div&gt;Full-Bridge&lt;/div&gt;" style="rounded=0;whiteSpace=wrap;html=1;container=0;textOpacity=30;" parent="1" vertex="1">
          <mxGeometry x="401" y="151.67" width="120" height="109.33" as="geometry" />
        </mxCell>
        <mxCell id="amalOigmN-ex_Px7Ythu-6" value="Switched-Capacitor" style="rounded=0;whiteSpace=wrap;html=1;verticalAlign=top;align=left;container=0;textOpacity=30;" parent="1" vertex="1">
          <mxGeometry x="521" y="151.67000000000002" width="260" height="73.33" as="geometry" />
        </mxCell>
        <mxCell id="amalOigmN-ex_Px7Ythu-7" value="FC" style="rounded=0;whiteSpace=wrap;html=1;container=0;textOpacity=30;" parent="1" vertex="1">
          <mxGeometry x="521" y="176.11111111111111" width="100" height="48.88888888888889" as="geometry" />
        </mxCell>
        <mxCell id="amalOigmN-ex_Px7Ythu-8" value="&lt;div&gt;CH2B&lt;br&gt;&lt;/div&gt;" style="rounded=0;whiteSpace=wrap;html=1;container=0;textOpacity=30;" parent="1" vertex="1">
          <mxGeometry x="621" y="176.11111111111111" width="80" height="48.88888888888889" as="geometry" />
        </mxCell>
        <mxCell id="amalOigmN-ex_Px7Ythu-9" value="&lt;div&gt;PPCMC&lt;br&gt;&lt;/div&gt;" style="rounded=0;whiteSpace=wrap;html=1;fillColor=#fff2cc;strokeColor=#d6b656;container=0;" parent="1" vertex="1">
          <mxGeometry x="701" y="176.11111111111111" width="80" height="48.88888888888889" as="geometry" />
        </mxCell>
        <mxCell id="amalOigmN-ex_Px7Ythu-19" value="&lt;div style=&quot;font-size: 20px;&quot;&gt;&lt;font style=&quot;font-size: 20px;&quot;&gt;&lt;b&gt;Hardware design&lt;/b&gt;&lt;br&gt;&lt;/font&gt;&lt;/div&gt;" style="rounded=0;whiteSpace=wrap;html=1;align=left;verticalAlign=top;container=0;" parent="1" vertex="1">
          <mxGeometry x="281" y="306" width="500" height="160" as="geometry" />
        </mxCell>
        <mxCell id="amalOigmN-ex_Px7Ythu-22" value="Layout: Minimizing strays with rational priority" style="rounded=0;whiteSpace=wrap;html=1;container=0;align=left;" parent="1" vertex="1">
          <mxGeometry x="281" y="347" width="500" height="40" as="geometry" />
        </mxCell>
        <mxCell id="amalOigmN-ex_Px7Ythu-24" value="Thermal" style="rounded=0;whiteSpace=wrap;html=1;container=0;align=left;verticalAlign=top;" parent="1" vertex="1">
          <mxGeometry x="281" y="387" width="500" height="78" as="geometry" />
        </mxCell>
        <mxCell id="amalOigmN-ex_Px7Ythu-26" value="Priority of thermal capacitance vs. resistance in intermittent load profile: demonstration on GaN HEMT" style="rounded=0;whiteSpace=wrap;html=1;fillColor=#d5e8d4;strokeColor=#82b366;container=0;textOpacity=30;" parent="1" vertex="1">
          <mxGeometry x="561" y="396" width="212" height="60" as="geometry" />
        </mxCell>
        <mxCell id="amalOigmN-ex_Px7Ythu-27" value="&lt;div style=&quot;font-size: 20px;&quot;&gt;&lt;font style=&quot;font-size: 20px;&quot;&gt;&lt;b&gt;&amp;nbsp;Modulation&lt;/b&gt;&lt;br&gt;&lt;/font&gt;&lt;/div&gt;" style="rounded=0;whiteSpace=wrap;html=1;align=left;verticalAlign=top;container=0;" parent="1" vertex="1">
          <mxGeometry x="281" y="506" width="500" height="160" as="geometry" />
        </mxCell>
        <mxCell id="amalOigmN-ex_Px7Ythu-28" value="NLM" style="rounded=0;whiteSpace=wrap;html=1;container=0;textOpacity=30;" parent="1" vertex="1">
          <mxGeometry x="281" y="553" width="120" height="113" as="geometry" />
        </mxCell>
        <mxCell id="amalOigmN-ex_Px7Ythu-29" value="&lt;div&gt;PWM methods:&amp;nbsp;&lt;/div&gt;&lt;div&gt;PSC-/LSC- PWM&lt;/div&gt;" style="rounded=0;whiteSpace=wrap;html=1;container=0;textOpacity=30;" parent="1" vertex="1">
          <mxGeometry x="401" y="553" width="120" height="113" as="geometry" />
        </mxCell>
        <mxCell id="amalOigmN-ex_Px7Ythu-30" value="PWM-e-NLM" style="rounded=0;whiteSpace=wrap;html=1;fillColor=#d5e8d4;strokeColor=#82b366;container=0;textOpacity=30;" parent="1" vertex="1">
          <mxGeometry x="521" y="553" width="120" height="113" as="geometry" />
        </mxCell>
        <mxCell id="amalOigmN-ex_Px7Ythu-31" value="Asymmetrical submodule voltage modulation" style="rounded=0;whiteSpace=wrap;html=1;fillColor=#fff2cc;strokeColor=#d6b656;container=0;textOpacity=30;" parent="1" vertex="1">
          <mxGeometry x="641" y="553" width="140" height="113" as="geometry" />
        </mxCell>
      </root>
    </mxGraphModel>
  </diagram>
</mxfile>
